<svg xmlns="http://www.w3.org/2000/svg" xmlns:svg="http://www.w3.org/2000/svg" xmlns:xlink="http://www.w3.org/1999/xlink" id="svg12" width="500" height="500" version="1.1"><metadata id="metadata16"/><defs id="defs8"><linearGradient id="linearGradientStops"><stop style="stop-color:#0515fe" id="stop2" offset="0"/><stop style="stop-color:#2cab28" id="stop4" offset="1"/></linearGradient><linearGradient id="BlueGreen" x1="0" x2="0" y1="20" y2="180" gradientTransform="translate(0,82)" gradientUnits="userSpaceOnUse" xlink:href="#linearGradientStops"/></defs><path style="fill:url(#BlueGreen)" id="path10" d="M 166.09991,86.26486 A 24.0024,24.0024 0 0 0 142.4612,110.6047 v 85.28517 H 52.943634 V 110.94064 A 24.0024,24.0024 0 0 0 28.582304,86.6008 24.0024,24.0024 0 0 0 4.9436344,110.94064 v 219.34767 a 24.0024,24.0024 0 1 0 47.9999996,0 V 243.88988 H 190.46121 V 135.69845 c 72.9063,6.88849 101.24551,48.69366 100.91011,86.69923 -0.3698,41.9162 -35.34671,87.66903 -126.28121,84.7481 a 24.0024,24.0024 0 1 0 -1.541,47.97463 c 66.7689,2.1447 117.38341,-21.4777 146.78121,-56.25003 v 33.39063 a 24.0024,24.0024 0 1 0 48,0 v -87.16803 h 79.9551 a 24.0024,24.0024 0 1 0 0,-47.99999 h -79.9551 V 134.6047 h 112.2852 a 24.0024,24.0024 0 1 0 0,-48 H 170.38501 a 24.0024,24.0024 0 0 0 -4.2851,-0.33984 z"/></svg>